<?xml version="1.0" encoding="UTF-8"?>
<svg version="1.1" xmlns="http://www.w3.org/2000/svg" width="256" height="257">
<path d="M0 0 C0.99 0.33 1.98 0.66 3 1 C3.495 2.485 3.495 2.485 4 4 C5.33076989 4.34342449 6.66431979 4.67619874 8 5 C8.99 6.485 8.99 6.485 10 8 C11.32520503 8.68268138 12.65812182 9.3507041 14 10 C14.495 10.99 14.495 10.99 15 12 C15.99 12.495 15.99 12.495 17 13 C19 14 19 14 20 16 C20.66 16.33 21.32 16.66 22 17 C24 18 24 18 25 20 C25.66 20.33 26.32 20.66 27 21 C29 22 29 22 30 24 C30.639375 24.28875 31.27875 24.5775 31.9375 24.875 C34.4683281 26.25545169 34.89315675 27.39101234 36 30 C36.99 31.485 36.99 31.485 38 33 C38.24050903 35.84278297 38.24050903 35.84278297 38.22705078 39.37442017 C38.2273485 40.02400173 38.22764622 40.67358329 38.22795296 41.34284914 C38.22656186 43.52378195 38.21086804 45.70437953 38.1953125 47.88525391 C38.19147476 49.44742646 38.18854687 51.00960147 38.1864624 52.57177734 C38.18013394 55.93904786 38.16758658 59.30621841 38.15032959 62.67345047 C38.12330139 68.00253808 38.11149896 73.3315923 38.10205078 78.66073608 C38.07794368 90.94324511 38.0339265 103.22566792 37.98959351 115.50811768 C37.94919913 126.74871649 37.91305042 137.98928547 37.89316368 149.22994173 C37.88322343 154.52205816 37.86353868 159.81402014 37.83630371 165.10607457 C37.82132545 168.40827354 37.81474118 171.71045164 37.8103714 175.01268005 C37.80664452 176.53761942 37.79947711 178.06255511 37.78850555 179.58745956 C37.25737988 193.25813299 37.25737988 193.25813299 42.375 205.5 C44.81788784 207.82655985 45.75582858 208.65241021 49 209 C49.33 209.33 49.66 209.66 50 210 C55.99511534 209.87879238 62.57583362 209.71208319 68 207 C72.17037069 202.60420387 73.1207197 199.30312129 73.15821838 193.36225891 C73.1680072 192.1885675 73.17779602 191.0148761 73.18788147 189.80561829 C73.19363693 188.51665146 73.1993924 187.22768463 73.20532227 185.8996582 C73.2149016 184.52977198 73.22491172 183.15988871 73.23532104 181.79000854 C73.26237018 178.06924936 73.28337969 174.34847749 73.30332303 170.62767434 C73.32518252 166.7398931 73.35257139 162.85215095 73.37937927 158.96440125 C73.42930665 151.60154294 73.47424532 144.23866293 73.51740164 136.87576216 C73.56677362 128.49372231 73.62169189 120.11172168 73.67708123 111.72971976 C73.79090198 94.4865161 73.89774082 77.24327602 74 60 C77 61 77 61 79 63 C79.99 63.33 80.98 63.66 82 64 C82.33 64.99 82.66 65.98 83 67 C84.33076989 67.34342449 85.66431979 67.67619874 87 68 C87.99 69.485 87.99 69.485 89 71 C90.32520503 71.68268138 91.65812182 72.3507041 93 73 C93.33 73.66 93.66 74.32 94 75 C94.99 75.4640625 94.99 75.4640625 96 75.9375 C98 77 98 77 99 80 C99.66 80.165 100.32 80.33 101 80.5 C101.66 80.665 102.32 80.83 103 81 C103.33 81.99 103.66 82.98 104 84 C104.639375 84.144375 105.27875 84.28875 105.9375 84.4375 C108 85 108 85 109.125 86.9375 C109.41375 87.618125 109.7025 88.29875 110 89 C110.66 89.66 111.32 90.32 112 91 C112.24888897 92.82116508 112.24888897 92.82116508 112.24723816 95.07003784 C112.25143265 95.92210312 112.25562714 96.7741684 112.25994873 97.65205383 C112.25432922 98.58913681 112.24870972 99.52621979 112.24291992 100.49169922 C112.24481827 101.47733353 112.24671661 102.46296783 112.24867249 103.47846985 C112.25239201 106.7539554 112.24165198 110.02922145 112.23046875 113.3046875 C112.22927656 115.58236668 112.22882387 117.86004635 112.2290802 120.13772583 C112.22751284 124.9245306 112.21920961 129.71126086 112.20581055 134.49804688 C112.18891649 140.60853548 112.18499344 146.71894139 112.18575573 152.82945061 C112.1854824 157.54117612 112.17997353 162.25288386 112.17275429 166.96460342 C112.16958858 169.21546418 112.16760516 171.46632693 112.16686058 173.71718979 C112.13734672 216.35246506 112.13734672 216.35246506 96.5859375 232.5078125 C95.01776952 234.05606724 93.43087672 235.58574055 91.8203125 237.08984375 C89.7754696 238.96434282 89.7754696 238.96434282 89 242 C84.50000065 244.99999956 81.35660978 246.16915132 76 247 C74.2054573 247.5108359 72.41382887 248.03200204 70.625 248.5625 C59.49850456 251.38213363 48.10359682 250.54806158 37 248 C36.19046875 247.88011719 35.3809375 247.76023438 34.546875 247.63671875 C31.40417916 246.85104479 29.16310081 245.49377799 26.4375 243.75 C25.50808594 243.16734375 24.57867187 242.5846875 23.62109375 241.984375 C20.87733573 239.90713346 19.05137506 237.74713684 17 235 C15.15811388 232.94729537 15.15811388 232.94729537 13 232 C12.66186776 230.66787558 12.32945597 229.33429669 12 228 C11.12472627 226.49596951 10.20277318 225.01867138 9.25 223.5625 C4.59358094 215.98880635 1.22931001 207.82988265 0 199 C-0.66 199 -1.32 199 -2 199 C-2.33 184.15 -2.66 169.3 -3 154 C-10.03223266 155.50930265 -10.03223266 155.50930265 -16.81640625 157.5078125 C-17.59951172 157.77207031 -18.38261719 158.03632813 -19.18945312 158.30859375 C-19.97255859 158.57800781 -20.75566406 158.84742188 -21.5625 159.125 C-22.38041016 159.40214844 -23.19832031 159.67929688 -24.04101562 159.96484375 C-26.02876568 160.63905137 -28.01459349 161.31892204 -30 162 C-30 162.66 -30 163.32 -30 164 C-31.32 164.33 -32.64 164.66 -34 165 C-34.33 169.62 -34.66 174.24 -35 179 C-35.33 179 -35.66 179 -36 179 C-35.99555878 179.83493988 -35.99111755 180.66987976 -35.98654175 181.53012085 C-35.94651408 189.38790625 -35.91604063 197.24565755 -35.89637566 205.10352135 C-35.88592593 209.14360264 -35.8717452 213.18359989 -35.84912109 217.22363281 C-35.82743488 221.12044733 -35.81544033 225.01718087 -35.81024551 228.91405106 C-35.80654214 230.40285136 -35.79931062 231.8916471 -35.78853989 233.38041306 C-35.77408081 235.46122667 -35.77201967 237.54170306 -35.77294922 239.62255859 C-35.768508 240.80836517 -35.76406677 241.99417175 -35.75949097 243.21591187 C-36 246 -36 246 -38 248 C-40.93453261 247.63318342 -41.86437246 247.13562754 -44 245 C-44.639375 244.855625 -45.27875 244.71125 -45.9375 244.5625 C-48.423756 243.88443018 -49.23804218 242.83537273 -51 241 C-51.680625 240.690625 -52.36125 240.38125 -53.0625 240.0625 C-55 239 -55 239 -55.88671875 237.18359375 C-57.17890723 234.64909073 -58.76392294 233.0322649 -60.75 231 C-71.30128358 219.29975632 -74.28117138 204.84759383 -74.88012695 189.51904297 C-74.93517899 188.33320114 -74.99023102 187.14735931 -75.04695129 185.92558289 C-75.52493191 174.98908067 -75.80116153 164.04452975 -76.008008 153.09980583 C-76.14932796 145.78111098 -76.35472382 138.47679545 -76.72973633 131.16601562 C-79.39992518 78.08237847 -79.39992518 78.08237847 -64.04545498 60.95189857 C-57.18160207 53.89282222 -49.54888031 47.72088183 -41.3954649 42.21498299 C-39.70002247 40.94646817 -39.70002247 40.94646817 -39 38 C-38.01 38.33 -37.02 38.66 -36 39 C-36.00222061 39.99780487 -36.00444122 40.99560974 -36.00672913 42.02365112 C-36.0269719 51.41192657 -36.04197764 60.80019762 -36.05181217 70.18848991 C-36.0570381 75.01548037 -36.06413052 79.84245325 -36.07543945 84.66943359 C-36.0862786 89.32485248 -36.09227903 93.98025444 -36.09487724 98.63568497 C-36.09672963 100.41474804 -36.1003467 102.19381016 -36.10573006 103.97286606 C-36.11295409 106.45833107 -36.11399036 108.94372546 -36.11352539 111.42919922 C-36.1189183 112.54050201 -36.1189183 112.54050201 -36.12442017 113.67425537 C-36.18005195 117.46292044 -36.18005195 117.46292044 -35 121 C-30.40907294 121.22058508 -26.94544748 120.5361591 -22.625 119 C-21.56539062 118.62875 -20.50578125 118.2575 -19.4140625 117.875 C-18.61742187 117.58625 -17.82078125 117.2975 -17 117 C-17 116.34 -17 115.68 -17 115 C-16.38511719 114.86722656 -15.77023438 114.73445313 -15.13671875 114.59765625 C-13.92435547 114.33275391 -13.92435547 114.33275391 -12.6875 114.0625 C-11.48673828 113.80146484 -11.48673828 113.80146484 -10.26171875 113.53515625 C-7.854599 113.00113841 -7.854599 113.00113841 -5 112 C-4.01 111.67 -3.02 111.34 -2 111 C-2.00184359 110.4452405 -2.00368717 109.890481 -2.00558662 109.3189106 C-2.0497183 95.83237845 -2.08270589 82.34585892 -2.10362434 68.8592701 C-2.1140792 62.33730512 -2.12826937 55.8153921 -2.15087891 49.29345703 C-2.17254669 43.00410321 -2.18455579 36.71479948 -2.18975449 30.42541122 C-2.19346117 28.02113938 -2.20069897 25.6168704 -2.21146011 23.21261978 C-2.22589441 19.85538979 -2.22798133 16.49836911 -2.22705078 13.14111328 C-2.23424133 12.13842407 -2.24143188 11.13573486 -2.24884033 10.10266113 C-2.246091 9.19118317 -2.24334167 8.2797052 -2.24050903 7.34060669 C-2.24235262 6.54602114 -2.24419621 5.75143559 -2.24609566 4.93277168 C-2 3 -2 3 0 1 C0 0.67 0 0.34 0 0 Z M50 211 C50 211.33 50 211.66 50 212 C53.96 212 57.92 212 62 212 C62 211.67 62 211.34 62 211 C58.04 211 54.08 211 50 211 Z " fill="#FDFDFD" transform="translate(109,4)"/>
<path d="M0 0 C0.33 0 0.66 0 1 0 C1 45.21 1 90.42 1 137 C0.67 137 0.34 137 0 137 C0 91.79 0 46.58 0 0 Z " fill="#FFFFFF" transform="translate(181,65)"/>
<path d="M0 0 C0.33 0 0.66 0 1 0 C1 42.24 1 84.48 1 128 C0.67 128 0.34 128 0 128 C0 85.76 0 43.52 0 0 Z " fill="#FDFDFD" transform="translate(33,79)"/>
<path d="M0 0 C0.33 0 0.66 0 1 0 C1 34.32 1 68.64 1 104 C0.67 104 0.34 104 0 104 C0 69.68 0 35.36 0 0 Z " fill="#FAFAFA" transform="translate(222,95)"/>
<path d="M0 0 C0.33 0 0.66 0 1 0 C1 24.75 1 49.5 1 75 C0.67 75 0.34 75 0 75 C0 50.25 0 25.5 0 0 Z " fill="#FBFBFB" transform="translate(148,37)"/>
<path d="M0 0 C0.33 0 0.66 0 1 0 C1 17.82 1 35.64 1 54 C0.67 54 0.34 54 0 54 C0 36.18 0 18.36 0 0 Z " fill="#CBCBCB" transform="translate(74,196)"/>
<path d="M0 0 C0.33 0 0.66 0 1 0 C1 16.5 1 33 1 50 C0.67 50 0.34 50 0 50 C0 33.5 0 17 0 0 Z " fill="#DBDBDB" transform="translate(74,66)"/>
<path d="M0 0 C0.33 0 0.66 0 1 0 C1 13.86 1 27.72 1 42 C0.67 42 0.34 42 0 42 C0 28.14 0 14.28 0 0 Z " fill="#F2F2F2" transform="translate(148,132)"/>
<path d="M0 0 C0.33 0 0.66 0 1 0 C1 7.26 1 14.52 1 22 C0.67 22 0.34 22 0 22 C0 14.74 0 7.48 0 0 Z " fill="#FFFFFF" transform="translate(147,175)"/>
<path d="M0 0 C0.33 0 0.66 0 1 0 C1 6.27 1 12.54 1 19 C0.67 19 0.34 19 0 19 C0 12.73 0 6.46 0 0 Z " fill="#FFFFFF" transform="translate(74,44)"/>
<path d="M0 0 C5.28 0 10.56 0 16 0 C16 0.33 16 0.66 16 1 C10.72 1 5.44 1 0 1 C0 0.67 0 0.34 0 0 Z " fill="#FFFFFF" transform="translate(157,255)"/>
<path d="M0 0 C0.33 0 0.66 0 1 0 C1 5.28 1 10.56 1 16 C0.67 16 0.34 16 0 16 C0 10.72 0 5.44 0 0 Z " fill="#FFFFFF" transform="translate(147,114)"/>
<path d="M0 0 C0 3 0 3 -2.5 5.6875 C-3.325 6.450625 -4.15 7.21375 -5 8 C-5.66 7.67 -6.32 7.34 -7 7 C-4.69 4.69 -2.38 2.38 0 0 Z " fill="#FFFFFF" transform="translate(207,235)"/>
<path d="M0 0 C0.33 0 0.66 0 1 0 C1 3.3 1 6.6 1 10 C0.67 10 0.34 10 0 10 C0 6.7 0 3.4 0 0 Z " fill="#FFFFFF" transform="translate(221,200)"/>
<path d="M0 0 C-2.64 0.33 -5.28 0.66 -8 1 C-4.93251126 -0.86240388 -3.40254489 -1.2151946 0 0 Z " fill="#FFFFFF" transform="translate(182,254)"/>
<path d="M0 0 C0.33 0 0.66 0 1 0 C1 2.31 1 4.62 1 7 C0.67 7 0.34 7 0 7 C0 4.69 0 2.38 0 0 Z " fill="#FFFFFF" transform="translate(148,197)"/>
<path d="M0 0 C0.33 0 0.66 0 1 0 C1 1.98 1 3.96 1 6 C0.67 6 0.34 6 0 6 C0 4.02 0 2.04 0 0 Z " fill="#FFFFFF" transform="translate(108,203)"/>
<path d="M0 0 C0.33 0 0.66 0 1 0 C1 1.65 1 3.3 1 5 C0.67 5 0.34 5 0 5 C0 3.35 0 1.7 0 0 Z " fill="#FFFFFF" transform="translate(34,207)"/>
<path d="M0 0 C4 1 4 1 4 1 Z " fill="#FFFFFF" transform="translate(152,254)"/>
<path d="M0 0 C1 4 1 4 1 4 Z " fill="#FFFFFF" transform="translate(110,212)"/>
<path d="M0 0 C1 4 1 4 1 4 Z " fill="#FFFFFF" transform="translate(35,212)"/>
<path d="M0 0 C1 4 1 4 1 4 Z " fill="#FFFFFF" transform="translate(220,210)"/>
<path d="M0 0 C1 4 1 4 1 4 Z " fill="#FFFFFF" transform="translate(180,202)"/>
<path d="M0 0 C3 1 3 1 3 1 Z " fill="#FFFFFF" transform="translate(148,253)"/>
<path d="" fill="#FFFFFF" transform="translate(0,0)"/>
<path d="" fill="#FFFFFF" transform="translate(0,0)"/>
<path d="" fill="#FFFFFF" transform="translate(0,0)"/>
<path d="" fill="#FFFFFF" transform="translate(0,0)"/>
<path d="" fill="#000000" transform="translate(0,0)"/>
<path d="M0 0 C3 1 3 1 3 1 Z " fill="#FFFFFF" transform="translate(79,166)"/>
<path d="M0 0 C3 1 3 1 3 1 Z " fill="#FFFFFF" transform="translate(82,165)"/>
<path d="M0 0 C3 1 3 1 3 1 Z " fill="#FFFFFF" transform="translate(85,164)"/>
<path d="M0 0 C3 1 3 1 3 1 Z " fill="#FFFFFF" transform="translate(88,163)"/>
<path d="M0 0 C3 1 3 1 3 1 Z " fill="#FFFFFF" transform="translate(91,162)"/>
<path d="M0 0 C3 1 3 1 3 1 Z " fill="#FFFFFF" transform="translate(94,161)"/>
<path d="M0 0 C3 1 3 1 3 1 Z " fill="#FFFFFF" transform="translate(97,160)"/>
<path d="M0 0 C3 1 3 1 3 1 Z " fill="#FFFFFF" transform="translate(100,159)"/>
<path d="M0 0 C3 1 3 1 3 1 Z " fill="#FFFFFF" transform="translate(103,158)"/>
<path d="M0 0 C3 1 3 1 3 1 Z " fill="#FFFFFF" transform="translate(76,124)"/>
<path d="M0 0 C3 1 3 1 3 1 Z " fill="#FFFFFF" transform="translate(82,122)"/>
<path d="M0 0 C3 1 3 1 3 1 Z " fill="#FFFFFF" transform="translate(86,121)"/>
<path d="M0 0 C3 1 3 1 3 1 Z " fill="#FFFFFF" transform="translate(89,120)"/>
<path d="M0 0 C3 1 3 1 3 1 Z " fill="#FFFFFF" transform="translate(101,116)"/>
<path d="M0 0 C0.66 0 1.32 0 2 0 C1.67 0.66 1.34 1.32 1 2 C0.67 1.34 0.34 0.68 0 0 Z " fill="#AAAAAA" transform="translate(143,31)"/>
<path d="M0 0 C2 1 2 1 2 1 Z " fill="#FFFFFF" transform="translate(182,252)"/>
<path d="M0 0 C2 1 2 1 2 1 Z " fill="#FFFFFF" transform="translate(146,252)"/>
<path d="M0 0 C2 1 2 1 2 1 Z " fill="#FFFFFF" transform="translate(185,251)"/>
<path d="M0 0 C2 1 2 1 2 1 Z " fill="#FFFFFF" transform="translate(187,250)"/>
<path d="M0 0 C2 1 2 1 2 1 Z " fill="#FFFFFF" transform="translate(63,248)"/>
<path d="" fill="#FFFFFF" transform="translate(0,0)"/>
<path d="" fill="#FFFFFF" transform="translate(0,0)"/>
<path d="" fill="#FFFFFF" transform="translate(0,0)"/>
<path d="" fill="#FFFFFF" transform="translate(0,0)"/>
<path d="" fill="#FFFFFF" transform="translate(0,0)"/>
<path d="" fill="#FFFFFF" transform="translate(0,0)"/>
<path d="" fill="#FFFFFF" transform="translate(0,0)"/>
<path d="" fill="#FFFFFF" transform="translate(0,0)"/>
<path d="" fill="#FFFFFF" transform="translate(0,0)"/>
<path d="" fill="#FFFFFF" transform="translate(0,0)"/>
<path d="" fill="#FFFFFF" transform="translate(0,0)"/>
<path d="" fill="#FFFFFF" transform="translate(0,0)"/>
<path d="" fill="#FFFFFF" transform="translate(0,0)"/>
<path d="" fill="#FFFFFF" transform="translate(0,0)"/>
<path d="" fill="#FFFFFF" transform="translate(0,0)"/>
<path d="" fill="#FFFFFF" transform="translate(0,0)"/>
<path d="" fill="#FFFFFF" transform="translate(0,0)"/>
<path d="" fill="#FFFFFF" transform="translate(0,0)"/>
<path d="" fill="#FFFFFF" transform="translate(0,0)"/>
<path d="" fill="#FFFFFF" transform="translate(0,0)"/>
<path d="M0 0 C2 1 2 1 2 1 Z " fill="#FFFFFF" transform="translate(80,123)"/>
<path d="" fill="#FFFFFF" transform="translate(0,0)"/>
<path d="M0 0 C2 1 2 1 2 1 Z " fill="#000000" transform="translate(183,62)"/>
<path d="" fill="#FFFFFF" transform="translate(0,0)"/>
<path d="" fill="#FFFFFF" transform="translate(0,0)"/>
<path d="" fill="#FFFFFF" transform="translate(0,0)"/>
<path d="" fill="#FFFFFF" transform="translate(0,0)"/>
<path d="" fill="#FFFFFF" transform="translate(0,0)"/>
<path d="" fill="#FFFFFF" transform="translate(0,0)"/>
<path d="" fill="#FFFFFF" transform="translate(0,0)"/>
<path d="" fill="#FFFFFF" transform="translate(0,0)"/>
<path d="" fill="#FFFFFF" transform="translate(0,0)"/>
<path d="" fill="#FFFFFF" transform="translate(0,0)"/>
<path d="" fill="#FFFFFF" transform="translate(0,0)"/>
<path d="" fill="#FFFFFF" transform="translate(0,0)"/>
<path d="" fill="#FFFFFF" transform="translate(0,0)"/>
<path d="" fill="#FFFFFF" transform="translate(0,0)"/>
<path d="" fill="#FFFFFF" transform="translate(0,0)"/>
<path d="" fill="#FFFFFF" transform="translate(0,0)"/>
<path d="" fill="#FFFFFF" transform="translate(0,0)"/>
<path d="" fill="#FFFFFF" transform="translate(0,0)"/>
<path d="" fill="#FFFFFF" transform="translate(0,0)"/>
<path d="" fill="#FFFFFF" transform="translate(0,0)"/>
<path d="" fill="#FFFFFF" transform="translate(0,0)"/>
<path d="" fill="#FFFFFF" transform="translate(0,0)"/>
<path d="" fill="#FFFFFF" transform="translate(0,0)"/>
<path d="" fill="#FFFFFF" transform="translate(0,0)"/>
<path d="" fill="#FFFFFF" transform="translate(0,0)"/>
<path d="" fill="#FFFFFF" transform="translate(0,0)"/>
<path d="" fill="#FFFFFF" transform="translate(0,0)"/>
<path d="" fill="#FFFFFF" transform="translate(0,0)"/>
<path d="" fill="#FFFFFF" transform="translate(0,0)"/>
<path d="" fill="#FFFFFF" transform="translate(0,0)"/>
<path d="" fill="#FFFFFF" transform="translate(0,0)"/>
<path d="" fill="#FFFFFF" transform="translate(0,0)"/>
<path d="" fill="#FFFFFF" transform="translate(0,0)"/>
<path d="" fill="#FFFFFF" transform="translate(0,0)"/>
<path d="" fill="#FFFFFF" transform="translate(0,0)"/>
<path d="" fill="#FFFFFF" transform="translate(0,0)"/>
<path d="" fill="#FFFFFF" transform="translate(0,0)"/>
<path d="" fill="#FFFFFF" transform="translate(0,0)"/>
<path d="" fill="#FFFFFF" transform="translate(0,0)"/>
<path d="" fill="#FFFFFF" transform="translate(0,0)"/>
<path d="" fill="#FFFFFF" transform="translate(0,0)"/>
<path d="" fill="#FFFFFF" transform="translate(0,0)"/>
<path d="" fill="#FFFFFF" transform="translate(0,0)"/>
<path d="" fill="#FFFFFF" transform="translate(0,0)"/>
<path d="" fill="#FFFFFF" transform="translate(0,0)"/>
<path d="" fill="#FFFFFF" transform="translate(0,0)"/>
<path d="" fill="#FFFFFF" transform="translate(0,0)"/>
<path d="" fill="#FFFFFF" transform="translate(0,0)"/>
<path d="" fill="#FFFFFF" transform="translate(0,0)"/>
<path d="" fill="#FFFFFF" transform="translate(0,0)"/>
<path d="" fill="#FFFFFF" transform="translate(0,0)"/>
<path d="" fill="#FFFFFF" transform="translate(0,0)"/>
<path d="" fill="#FFFFFF" transform="translate(0,0)"/>
<path d="" fill="#FFFFFF" transform="translate(0,0)"/>
<path d="" fill="#FFFFFF" transform="translate(0,0)"/>
<path d="" fill="#FFFFFF" transform="translate(0,0)"/>
<path d="" fill="#FFFFFF" transform="translate(0,0)"/>
<path d="" fill="#FFFFFF" transform="translate(0,0)"/>
<path d="" fill="#FFFFFF" transform="translate(0,0)"/>
<path d="" fill="#FFFFFF" transform="translate(0,0)"/>
<path d="" fill="#AAAAAA" transform="translate(0,0)"/>
<path d="" fill="#FFFFFF" transform="translate(0,0)"/>
<path d="" fill="#FFFFFF" transform="translate(0,0)"/>
<path d="" fill="#FFFFFF" transform="translate(0,0)"/>
<path d="" fill="#FFFFFF" transform="translate(0,0)"/>
<path d="" fill="#FFFFFF" transform="translate(0,0)"/>
<path d="" fill="#FFFFFF" transform="translate(0,0)"/>
<path d="" fill="#FFFFFF" transform="translate(0,0)"/>
<path d="" fill="#FFFFFF" transform="translate(0,0)"/>
<path d="" fill="#FFFFFF" transform="translate(0,0)"/>
<path d="" fill="#FFFFFF" transform="translate(0,0)"/>
<path d="" fill="#FFFFFF" transform="translate(0,0)"/>
<path d="" fill="#FFFFFF" transform="translate(0,0)"/>
<path d="" fill="#FFFFFF" transform="translate(0,0)"/>
<path d="" fill="#FFFFFF" transform="translate(0,0)"/>
<path d="" fill="#FFFFFF" transform="translate(0,0)"/>
<path d="" fill="#FFFFFF" transform="translate(0,0)"/>
<path d="" fill="#FFFFFF" transform="translate(0,0)"/>
<path d="" fill="#FFFFFF" transform="translate(0,0)"/>
<path d="" fill="#FFFFFF" transform="translate(0,0)"/>
<path d="" fill="#FFFFFF" transform="translate(0,0)"/>
<path d="" fill="#FFFFFF" transform="translate(0,0)"/>
<path d="" fill="#FFFFFF" transform="translate(0,0)"/>
<path d="" fill="#FFFFFF" transform="translate(0,0)"/>
<path d="" fill="#FFFFFF" transform="translate(0,0)"/>
<path d="" fill="#FFFFFF" transform="translate(0,0)"/>
<path d="" fill="#FFFFFF" transform="translate(0,0)"/>
<path d="" fill="#FFFFFF" transform="translate(0,0)"/>
<path d="" fill="#FFFFFF" transform="translate(0,0)"/>
<path d="" fill="#FFFFFF" transform="translate(0,0)"/>
<path d="" fill="#AAAAAA" transform="translate(0,0)"/>
<path d="" fill="#FFFFFF" transform="translate(0,0)"/>
<path d="" fill="#FFFFFF" transform="translate(0,0)"/>
<path d="" fill="#FFFFFF" transform="translate(0,0)"/>
<path d="" fill="#FFFFFF" transform="translate(0,0)"/>
</svg>
